<svg width="107" height="107" viewBox="0 0 107 107" fill="none" xmlns="http://www.w3.org/2000/svg"><path clip-rule="evenodd" d="M2 5a3 3 0 0 1 3-3h97a3 3 0 0 1 3 3v97a3 3 0 0 1-3 3H5a3 3 0 0 1-3-3V5z" stroke="#5E5E5E" stroke-width="4" stroke-linecap="round" stroke-linejoin="round"/><path clip-rule="evenodd" d="M2 84.4l20.6-20.6 20.6 15.45L74.1 43.2 105 74.1V102a3 3 0 0 1-3 3H5a3 3 0 0 1-3-3V84.4z" stroke="#5E5E5E" stroke-width="4" stroke-linecap="round" stroke-linejoin="round"/><path fill-rule="evenodd" clip-rule="evenodd" d="M32.9 43.2c5.689 0 10.3-4.612 10.3-10.3 0-5.689-4.611-10.3-10.3-10.3-5.688 0-10.3 4.611-10.3 10.3 0 5.689 4.612 10.3 10.3 10.3z" fill="#5E5E5E"/></svg>