<svg width="60" height="60" viewBox="0 0 60 60" fill="none" xmlns="http://www.w3.org/2000/svg">
<circle cx="30" cy="30" r="30" fill="#F76B1C"/>
<path fill-rule="evenodd" clip-rule="evenodd" d="M19.4395 2.56067C20.0253 1.97488 20.0253 1.02514 19.4395 0.439339C18.8537 -0.146446 17.904 -0.146446 17.3181 0.439339L9.89346 7.86401L2.5607 0.531227C1.97488 -0.0545731 1.02518 -0.0545731 0.439362 0.531227C-0.146454 1.11701 -0.146454 2.06675 0.439362 2.65254L7.77213 9.98534L0.439484 17.318C-0.146332 17.9038 -0.146332 18.8536 0.439484 19.4393C1.0253 20.0251 1.97501 20.0251 2.56082 19.4393L9.89346 12.1067L17.318 19.5312C17.9038 20.117 18.8535 20.117 19.4394 19.5312C20.0252 18.9454 20.0252 17.9957 19.4394 17.4099L12.0148 9.98534L19.4395 2.56067Z" transform="translate(20.0061 20)" fill="white"/>
</svg>
